<?xml version="1.0" encoding="iso-8859-1"?>
<!-- Generator: Adobe Illustrator 19.1.0, SVG Export Plug-In . SVG Version: 6.00 Build 0)  -->
<svg version="1.1" id="Capa_1" xmlns="http://www.w3.org/2000/svg" xmlns:xlink="http://www.w3.org/1999/xlink" x="0px" y="0px"
	 viewBox="0 0 486.289 486.289" style="enable-background:new 0 0 486.289 486.289;" xml:space="preserve">
<g>
	<g>
		<path d="M198.578,208.689c1.5,0,3.1-0.3,4.5-0.9l227.1-92.3c4.5-1.8,7.5-6.2,7.5-11.1s-3-9.3-7.5-11.1l-226.9-92.4
			c-4.3-1.8-9.3-0.8-12.7,2.4s-4.7,8.1-3.2,12.5l29.4,88.5l-29.6,88.5c-1.5,4.4-0.2,9.3,3.2,12.6
			C192.678,207.589,195.578,208.689,198.578,208.689z M364.278,92.389h-126.2l-19.7-59.4L364.278,92.389z M238.078,116.389h126.2
			l-146.1,59.4L238.078,116.389z"/>
		<path d="M153.578,462.289c-3.2,0-6.3,1.3-8.5,3.5s-3.5,5.3-3.5,8.5s1.3,6.3,3.5,8.5s5.3,3.5,8.5,3.5s6.3-1.3,8.5-3.5
			s3.5-5.3,3.5-8.5s-1.3-6.3-3.5-8.5C159.778,463.589,156.778,462.289,153.578,462.289z"/>
		<path d="M292.278,462.289c-6.6,0-12,5.4-12,12s5.4,12,12,12s12-5.4,12-12S298.878,462.289,292.278,462.289z"/>
		<path d="M147.278,103.689c-1.2-6.5-7.5-10.8-14-9.6c-6.5,1.2-10.8,7.5-9.6,14c1.1,5.8,6.1,9.8,11.8,9.8c0.7,0,1.5-0.1,2.2-0.2
			C144.178,116.489,148.478,110.289,147.278,103.689z"/>
		<path d="M202.678,277.389c-6.6,0-12,5.4-12,12s5.4,12,12,12s12-5.4,12-12C214.678,282.689,209.278,277.389,202.678,277.389z"/>
		<path d="M156.378,277.389c-6.6,0-12,5.4-12,12s5.4,12,12,12s12-5.4,12-12C168.378,282.689,163.078,277.389,156.378,277.389z"/>
		<path d="M199.778,462.289c-6.6,0-12,5.4-12,12s5.4,12,12,12s12-5.4,12-12S206.378,462.289,199.778,462.289z"/>
		<path d="M103.278,117.689c-4.2-5.1-11.8-5.9-16.9-1.7c-5.1,4.2-5.9,11.8-1.7,16.9c2.4,2.9,5.8,4.4,9.3,4.4c2.7,0,5.4-0.9,7.6-2.7
			C106.778,130.289,107.478,122.789,103.278,117.689z"/>
		<path d="M72.578,205.989c-0.7-6.6-6.7-11.3-13.3-10.6c-6.6,0.8-11.3,6.7-10.6,13.3c0.7,6.1,5.9,10.7,11.9,10.7
			c0.5,0,0.9,0,1.4-0.1C68.578,218.489,73.378,212.589,72.578,205.989z"/>
		<path d="M116.978,269.089c-5.9-2.9-13.1-0.5-16.1,5.4c-2.9,6-0.5,13.1,5.4,16.1c1.7,0.8,3.5,1.2,5.3,1.2c4.4,0,8.7-2.4,10.8-6.7
			C125.378,279.189,122.878,271.989,116.978,269.089z"/>
		<path d="M62.378,173.189c1.5,0.6,3,0.9,4.5,0.9c4.7,0,9.2-2.8,11.1-7.5c2.5-6.1-0.4-13.1-6.6-15.6c-6.1-2.5-13.1,0.5-15.6,6.6
			S56.178,170.689,62.378,173.189z"/>
		<path d="M69.978,240.289c-5.4,3.8-6.7,11.3-2.9,16.7c2.3,3.3,6.1,5.1,9.8,5.1c2.4,0,4.8-0.7,6.9-2.2c5.4-3.8,6.7-11.3,2.9-16.7
			C82.878,237.789,75.378,236.489,69.978,240.289z"/>
		<path d="M295.078,277.389c-6.6,0-12,5.4-12,12s5.4,12,12,12s12-5.4,12-12C307.078,282.689,301.678,277.389,295.078,277.389z"/>
		<path d="M342.278,277.689c-6.6-0.6-12.4,4.3-13,10.9s4.3,12.4,10.9,13c0.4,0,0.7,0,1,0c6.2,0,11.4-4.7,12-11
			C353.778,284.089,348.878,278.289,342.278,277.689z"/>
		<path d="M375.678,450.189c-5.6,3.5-7.3,10.9-3.8,16.5c2.3,3.6,6.2,5.7,10.2,5.7c2.2,0,4.4-0.6,6.3-1.8c5.6-3.5,7.3-10.9,3.8-16.5
			C388.678,448.389,381.278,446.689,375.678,450.189z"/>
		<path d="M337.778,462.189c-6.6,0.4-11.7,6-11.3,12.6c0.4,6.4,5.7,11.3,12,11.3c0.2,0,0.5,0,0.7,0c6.6-0.4,11.7-6,11.3-12.6
			C350.078,466.889,344.378,461.789,337.778,462.189z"/>
		<path d="M248.878,277.389c-6.6,0-12,5.4-12,12s5.4,12,12,12s12-5.4,12-12C260.878,282.689,255.478,277.389,248.878,277.389z"/>
		<path d="M409.478,328.189c-5.9,3.1-8.1,10.4-5,16.2c2.2,4.1,6.3,6.4,10.6,6.4c1.9,0,3.8-0.5,5.6-1.4c5.9-3.1,8.1-10.4,5-16.2
			S415.378,325.089,409.478,328.189z"/>
		<path d="M419.578,416.989c-5.8-3.3-13.1-1.2-16.4,4.5c-3.3,5.8-1.2,13.1,4.5,16.4c1.9,1.1,3.9,1.6,5.9,1.6c4.2,0,8.2-2.2,10.5-6.1
			C427.378,427.489,425.378,420.189,419.578,416.989z"/>
		<path d="M425.878,371.289c-6.6-0.1-12.1,5.2-12.2,11.8c-0.1,6.6,5.2,12.1,11.8,12.2c0.1,0,0.1,0,0.2,0c6.5,0,11.9-5.3,12-11.8
			C437.778,376.789,432.478,371.389,425.878,371.289z"/>
		<path d="M245.978,462.289c-6.6,0-12,5.4-12,12s5.4,12,12,12s12-5.4,12-12S252.678,462.289,245.978,462.289z"/>
		<path d="M391.078,294.789c-5.5-3.7-13-2.2-16.6,3.3c-3.7,5.5-2.2,13,3.3,16.6c2,1.4,4.4,2,6.7,2c3.9,0,7.7-1.9,10-5.3
			C398.078,305.989,396.578,298.489,391.078,294.789z"/>
		<path d="M193.778,104.389c0-3.2-1.3-6.3-3.5-8.5s-5.3-3.5-8.5-3.5s-6.3,1.3-8.5,3.5s-3.5,5.3-3.5,8.5s1.3,6.3,3.5,8.5
			s5.3,3.5,8.5,3.5s6.3-1.3,8.5-3.5S193.778,107.489,193.778,104.389z"/>
	</g>
</g>
<g>
</g>
<g>
</g>
<g>
</g>
<g>
</g>
<g>
</g>
<g>
</g>
<g>
</g>
<g>
</g>
<g>
</g>
<g>
</g>
<g>
</g>
<g>
</g>
<g>
</g>
<g>
</g>
<g>
</g>
</svg>
