<svg height="512pt" viewBox="-19 0 512 512.00041" width="512pt" xmlns="http://www.w3.org/2000/svg"><path d="m426.652344 94.828125h-75.847656v-9.480469c.089843-47.039062-37.96875-85.242187-85.007813-85.332031-15.097656-.03125-29.9375 3.957031-42.988281 11.550781-40.660156-23.652344-92.792969-9.867187-116.445313 30.789063-7.59375 13.054687-11.582031 27.890625-11.550781 42.992187v9.480469h-47.40625c-5.238281 0-9.480469 4.246094-9.480469 9.480469v398.210937c0 5.234375 4.242188 9.480469 9.480469 9.480469h379.246094c5.238281 0 9.480468-4.246094 9.480468-9.480469v-398.210937c0-5.234375-4.242187-9.480469-9.480468-9.480469zm-9.480469 384.804687-37.925781-37.925781v-327.917969h37.925781zm-94.8125-365.84375h37.925781v327.917969l-37.925781 37.925781zm47.40625 345.25 34 34h-68zm-104.292969-440.058593c36.636719.046875 66.320313 29.730469 66.367188 66.367187v9.480469h-66.367188v-9.480469c.003906-23.035156-9.339844-45.085937-25.894531-61.105468 8.191406-3.480469 16.996094-5.269532 25.894531-5.261719zm-42.664062 15.605469c15.019531 12.582031 23.699218 31.167968 23.703125 50.761718v9.480469h-47.40625v-9.480469c.003906-19.59375 8.683593-38.179687 23.703125-50.761718zm-109.035156 50.761718c.003906-36.652344 29.71875-66.367187 66.371093-66.367187 8.894531.003906 17.699219 1.789062 25.890625 5.261719-16.550781 16.019531-25.898437 38.070312-25.894531 61.105468v9.480469h-66.367187zm-56.886719 28.441406h37.925781v28.445313h18.960938v-28.445313h132.738281v28.445313h18.960937v-28.445313h37.925782v379.25h-246.511719zm0 0"/><path d="m455.097656 161.195312h18.960938v274.953126h-18.960938zm0 0"/><path d="m455.097656 455.113281h18.960938v18.960938h-18.960938zm0 0"/><path d="m0 180.160156h18.960938v284.433594h-18.960938zm0 0"/><path d="m0 142.234375h18.960938v18.960937h-18.960938zm0 0"/><path d="m151.699219 227.566406h-37.925781c-5.234376 0-9.480469 4.242188-9.480469 9.480469v37.925781c.066406 57.570313 46.722656 104.222656 104.292969 104.292969h37.925781c5.234375 0 9.480469-4.246094 9.480469-9.484375v-37.921875c-.066407-57.574219-46.722657-104.226563-104.292969-104.292969zm9.480469 19.519532v23.960937l-24.519532-24.519531h15.039063c3.167969.007812 6.332031.195312 9.480469.558594zm-37.925782 12.847656 62.445313 62.441406h-48.011719c-9.421875-14.011719-14.449219-30.519531-14.433594-47.40625zm31.8125 81.40625h49.59375l18.960938 18.960937h-15.035156c-19.488282.007813-38.382813-6.6875-53.519532-18.960937zm81.960938 5.554687-56.886719-56.886719v-38.503906c34.050781 12.058594 56.832031 44.234375 56.886719 80.351563zm0 0"/></svg>